<?xml version="1.0" encoding="UTF-8"?>
<svg width="80px" height="34px" viewBox="0 0 80 34" version="1.1" xmlns="http://www.w3.org/2000/svg" xmlns:xlink="http://www.w3.org/1999/xlink">
    <!-- Generator: Sketch 48.2 (47327) - http://www.bohemiancoding.com/sketch -->
    <title>Logo vector</title>
    <desc>Created with Sketch.</desc>
    <defs></defs>
    <g id="360-x-560-ok" stroke="none" stroke-width="1" fill="none" fill-rule="evenodd" transform="translate(-50.000000, -34.000000)">
        <g id="Logo-vector" transform="translate(50.000000, 34.000000)" fill="#000000">
            <path d="M17.4772761,22.5604924 C17.5698528,22.4996131 17.6377759,22.4025082 17.660417,22.2913155 C17.683058,22.1826385 17.660417,22.0649051 17.600544,21.9718252 C17.5396647,21.8792485 17.4410504,21.8123316 17.3318702,21.7896906 C17.1120006,21.7434022 16.8745212,21.8983676 16.8287359,22.1187404 C16.8055918,22.2274174 16.8287359,22.3446477 16.889112,22.4377276 C16.948985,22.5298012 17.0475994,22.5962149 17.1577858,22.6203653 C17.2679722,22.6445158 17.3836931,22.6203653 17.4772761,22.5604924" id="Fill-1"></path>
            <path d="M20.6759022,23.2302144 C20.7704914,23.1673227 20.836402,23.0717271 20.859043,22.9615407 C20.8831935,22.8518574 20.8600493,22.7331177 20.7991701,22.6415473 C20.7367814,22.546958 20.6411859,22.4810474 20.5304963,22.4589095 C20.3136454,22.4106086 20.0736504,22.5675866 20.0283683,22.7874562 C20.0027084,22.8941207 20.0253495,23.011351 20.0877381,23.1074497 C20.1491205,23.1995233 20.2467286,23.265937 20.356915,23.2890812 C20.4665983,23.3132316 20.581816,23.2921 20.6759022,23.2302144" id="Fill-3"></path>
            <path d="M23.874327,23.8994334 C23.96791,23.8390573 24.03533,23.7399398 24.057971,23.6312628 C24.0811152,23.5210764 24.057971,23.403343 23.998098,23.3102631 C23.9377219,23.2176864 23.8396107,23.1507695 23.7294243,23.1281285 C23.5100577,23.0818401 23.271069,23.2393212 23.2247806,23.4576815 C23.203649,23.5658553 23.2247806,23.6800668 23.2871692,23.7756624 C23.3480485,23.8687422 23.4456566,23.9356591 23.555843,23.9593064 C23.6660294,23.9819474 23.780744,23.9613189 23.874327,23.8994334" id="Fill-5"></path>
            <path d="M27.073909,24.5681492 C27.1659826,24.5082762 27.2318932,24.4111713 27.2570499,24.2994755 C27.2801941,24.1892891 27.2555405,24.0735682 27.1956675,23.9819977 C27.1332789,23.8874085 27.0371802,23.8169697 26.927497,23.7948318 C26.7056147,23.7510591 26.4696447,23.9070307 26.4228532,24.1243847 C26.4017216,24.2320555 26.4238595,24.3507952 26.485745,24.4458876 C26.5466243,24.5379612 26.6447355,24.604878 26.7529093,24.6295316 C26.8620895,24.6526758 26.9798229,24.6305379 27.073909,24.5681492" id="Fill-7"></path>
            <path d="M30.2708748,25.2388273 C30.3629484,25.1789543 30.4313746,25.0818493 30.4545188,24.9661285 C30.4771599,24.8604703 30.4545188,24.74324 30.3936396,24.6501601 C30.3322572,24.556074 30.2331397,24.4876477 30.1239596,24.4655098 C29.9050961,24.4217371 29.6666105,24.5751931 29.6213284,24.7945597 C29.5981842,24.9042429 29.6208253,25.020467 29.6822076,25.1160625 C29.7430869,25.2081361 29.8417012,25.2760592 29.9508814,25.2987002 C30.062074,25.3223476 30.1772918,25.2997065 30.2708748,25.2388273" id="Fill-9"></path>
            <path d="M33.4684946,25.9050777 C33.563587,25.8441985 33.6279882,25.7470935 33.6511324,25.6369071 C33.6742765,25.5272238 33.653648,25.4120061 33.5912594,25.3184231 C33.5308833,25.2253433 33.4322689,25.1589295 33.3225857,25.1347791 C33.1057348,25.0864782 32.8647334,25.2474812 32.8199545,25.4628227 C32.7978166,25.5740153 32.8199545,25.6902394 32.8803306,25.7833192 C32.941713,25.8774053 33.0388179,25.9418065 33.1485012,25.965957 C33.2581845,25.9891011 33.3759179,25.9669632 33.4684946,25.9050777" id="Fill-11"></path>
            <path d="M18.6867103,24.7568246 C18.7823058,24.6944359 18.846707,24.5983373 18.87287,24.4866415 C18.8929954,24.3749456 18.8723669,24.2607341 18.8119908,24.1686606 C18.7496021,24.0725619 18.6535035,24.0076576 18.5387888,23.9845134 C18.3209317,23.9407407 18.0844586,24.095203 18.0371639,24.312557 C18.0160323,24.4252591 18.0361577,24.5389674 18.0985463,24.6340598 C18.1584193,24.7276428 18.2555242,24.7925471 18.36722,24.8172007 C18.4769033,24.8398417 18.5936305,24.818207 18.6867103,24.7568246" id="Fill-13"></path>
            <path d="M21.8843805,25.4245341 C21.9769572,25.3631517 22.0443772,25.2660468 22.0675214,25.1558604 C22.0931812,25.0491959 22.070037,24.9314625 22.0076484,24.8348607 C21.9467691,24.7432903 21.8491611,24.6758703 21.7384715,24.6527261 C21.5180987,24.6059346 21.2821287,24.7629125 21.2358403,24.9802665 C21.2137024,25.0904529 21.2353372,25.2081864 21.2962165,25.3012662 C21.3586051,25.3958555 21.4572194,25.4627723 21.5669027,25.4859165 C21.6750766,25.5070482 21.7923069,25.4834008 21.8843805,25.4245341" id="Fill-15"></path>
            <path d="M25.0837613,26.0937531 C25.176338,26.0328738 25.2432548,25.9347626 25.266399,25.8245762 C25.2895432,25.7158992 25.2669021,25.5976626 25.206526,25.5050859 C25.1461499,25.4120061 25.0475356,25.3450892 24.9383554,25.3224482 C24.7179826,25.2761598 24.4820126,25.4311252 24.4352211,25.651498 C24.4125801,25.760175 24.4352211,25.8774053 24.4950941,25.969982 C24.5564765,26.0625588 24.6540846,26.1299788 24.764271,26.1531229 C24.8739542,26.1762671 24.9906814,26.1531229 25.0837613,26.0937531" id="Fill-17"></path>
            <path d="M28.2818842,26.7624689 C28.3744609,26.7020928 28.4423841,26.6034785 28.4660314,26.4937952 C28.4881693,26.3851182 28.4660314,26.2673847 28.4061584,26.1743049 C28.344776,26.0817282 28.2456585,26.0143082 28.1369815,25.9921703 C27.9171118,25.9448756 27.6806387,26.099841 27.6348535,26.3197107 C27.610703,26.4288908 27.6313315,26.5446117 27.6942233,26.6407104 C27.7561089,26.7337902 27.85422,26.800204 27.9628971,26.8218387 C28.0730835,26.8459892 28.1898106,26.8233482 28.2818842,26.7624689" id="Fill-19"></path>
            <path d="M31.4817681,27.432191 C31.5743449,27.3713117 31.6417649,27.2732005 31.6644059,27.162511 C31.6880532,27.0533308 31.664909,26.9361006 31.6040298,26.844027 C31.5416411,26.7484315 31.4450393,26.6835271 31.3348529,26.6603829 C31.1159895,26.6145977 30.8790132,26.7700662 30.8307123,26.9904391 C30.810587,27.0986129 30.8327249,27.2163464 30.8936041,27.3089231 C30.9539802,27.4009967 31.0530977,27.4684167 31.159259,27.4935734 C31.2709549,27.5157113 31.3866758,27.4935734 31.4817681,27.432191" id="Fill-21"></path>
            <path d="M19.4839266,26.4927386 C19.4612856,26.6034281 19.4834235,26.719149 19.5448059,26.8132352 C19.6061883,26.9068181 19.7048026,26.9747413 19.8144859,26.9978854 C19.9226598,27.0190171 20.0388838,26.999898 20.1344793,26.9380125 C20.2260498,26.8781395 20.2939729,26.779022 20.3166139,26.6693387 C20.3407644,26.5596555 20.3171171,26.441922 20.2562378,26.3478359 C20.1953586,26.2557623 20.0972474,26.1868329 19.9865578,26.164695 C19.7681975,26.1209223 19.5292087,26.2773971 19.4839266,26.4927386" id="Fill-23"></path>
            <path d="M22.6823012,27.1624104 C22.6596601,27.2730999 22.6823012,27.3883177 22.7431804,27.4824038 C22.8055691,27.5764899 22.9016677,27.6418974 23.011351,27.6650415 C23.1220406,27.6876826 23.2362521,27.6680604 23.3308413,27.6056717 C23.4239212,27.5457987 23.4913412,27.4471844 23.5134791,27.336998 C23.5381326,27.2268116 23.5159947,27.1120969 23.4536061,27.0175077 C23.39323,26.9244278 23.2956219,26.8580141 23.1849324,26.8338637 C22.9655658,26.7875753 22.726577,26.9445532 22.6823012,27.1624104" id="Fill-25"></path>
            <path d="M25.878965,27.8330884 C25.8593428,27.9412623 25.8819838,28.0589957 25.94236,28.1505662 C26.0037424,28.2456585 26.1003441,28.3105629 26.2110337,28.3347133 C26.3202138,28.3578575 26.4359347,28.3362227 26.5300208,28.2743372 C26.6225976,28.2139611 26.6905207,28.1153468 26.7131617,28.0056635 C26.736809,27.8949739 26.7136649,27.7777436 26.6532888,27.6856701 C26.5939189,27.5940996 26.4942983,27.5266796 26.3841119,27.5025292 C26.1652485,27.4562408 25.9252534,27.6132187 25.878965,27.8330884" id="Fill-27"></path>
            <path d="M29.0783458,28.5023074 C29.0557048,28.6124938 29.0763333,28.7272084 29.138722,28.8228039 C29.1990981,28.9143744 29.2977124,28.9822975 29.4078988,29.0044354 C29.5175821,29.029089 29.6338061,29.0059448 29.7273891,28.9460718 C29.8199658,28.8856957 29.8873858,28.7870814 29.9125425,28.6758887 C29.933171,28.5672117 29.9110331,28.4499814 29.8496507,28.3569015 C29.7872621,28.2623123 29.6906603,28.1969048 29.580977,28.1737607 C29.3621136,28.1274723 29.1251373,28.2829408 29.0783458,28.5023074" id="Fill-29"></path>
            <path d="M21.1461315,29.0909242 C21.2387082,29.0310512 21.3056251,28.93294 21.3267567,28.8202379 C21.3524166,28.7140766 21.3297755,28.59584 21.2688963,28.5042696 C21.2075139,28.4081709 21.1083964,28.3402478 20.9987131,28.3166005 C20.7778372,28.2728278 20.541364,28.430812 20.496082,28.6466566 C20.473944,28.756843 20.4955788,28.8725639 20.5579675,28.9681594 C20.6188467,29.060233 20.717461,29.1281561 20.8251318,29.1487846 C20.9358213,29.1744445 21.0510391,29.153816 21.1461315,29.0909242" id="Fill-31"></path>
            <path d="M24.3432985,29.7581809 C24.4358752,29.6978048 24.5012827,29.601203 24.5264394,29.4910166 C24.5485773,29.3848553 24.5259362,29.2661156 24.4640507,29.1715263 C24.4036746,29.0789496 24.3045571,29.0110265 24.1983958,28.986876 C23.9775198,28.9410908 23.7400404,29.0995781 23.6922427,29.3169321 C23.6716142,29.4240997 23.6947584,29.54133 23.7551345,29.6354162 C23.8175231,29.7289991 23.9161375,29.7979285 24.0212925,29.8200664 C24.1319821,29.8432106 24.2482061,29.8200664 24.3432985,29.7581809" id="Fill-33"></path>
            <path d="M27.5426793,30.4273999 C27.6347529,30.3685332 27.6996572,30.270422 27.7248139,30.1597324 C27.7484612,30.0485397 27.7268264,29.9343282 27.6659472,29.8392359 C27.6035585,29.7456529 27.5064536,29.6797423 27.3967703,29.6571012 C27.174385,29.6128254 26.9374087,29.7672877 26.8926297,29.9866542 C26.8720012,30.0948281 26.8916235,30.2145741 26.9525027,30.3071508 C27.0138851,30.4007338 27.1135057,30.4646318 27.2206733,30.4892854 C27.3298535,30.5124296 27.4485932,30.4897885 27.5426793,30.4273999" id="Fill-35"></path>
            <path d="M33.2948126,30.5453346 L33.2943095,30.5453346 C30.5844281,32.3178767 27.0156964,32.9125815 23.504322,32.1785085 C17.2010553,30.8597935 12.9052945,25.654869 13.7183596,20.4434038 L14.3814906,20.582772 C14.0136994,22.946497 14.7024903,25.3670762 16.3497521,27.4420021 C18.0734902,29.6165486 20.6455128,31.1531208 23.590358,31.7679509 C26.8763282,32.4567418 30.2241839,31.8927283 32.7780937,30.2238317 C34.6643443,28.9901464 35.9770217,27.2231387 36.5118535,25.2131171 L37.1724688,25.3519822 C36.622543,27.4294237 35.2585459,29.2598264 33.2948126,30.5453346 Z M35.6776568,25.0390326 C35.1911259,26.8266688 34.0082571,28.4034918 32.3121913,29.5123998 C29.9469569,31.0585316 26.8310461,31.5782693 23.7644425,30.9372762 C21.013304,30.3616905 18.615869,28.9327891 17.0138894,26.9147173 C15.52914,25.0415483 14.8967002,22.8725363 15.2111591,20.7568565 L35.6776568,25.0390326 Z M37.7732112,24.6093559 L36.2824242,24.2979158 L36.2814179,24.2964064 L14.9580825,19.8361207 L14.9545606,19.8361207 L13.4662893,19.5236743 C13.2373632,19.4763796 13.0124622,19.623798 12.9641613,19.8537304 C12.3719722,22.6798358 13.1342207,25.6080775 15.1105322,28.0995987 C15.1688958,28.1725531 15.2297751,28.2429919 15.2896481,28.3134307 L15.2846167,28.3164495 L15.8370582,28.9710273 L15.8591961,28.9584489 C17.7771441,30.9709862 20.3894175,32.3943532 23.3302375,33.0106927 C23.5968987,33.0660375 23.8640631,33.1133321 24.1312274,33.1550922 C25.1047923,33.3352143 26.9170821,33.3251516 26.9170821,33.3251516 C29.411622,33.247669 31.793963,32.5432809 33.7602119,31.2572696 L33.760715,31.2562633 C36.0434354,29.763967 37.5860452,27.5813703 38.1027642,25.111484 C38.1249021,25.0002913 38.1037704,24.8860798 38.0418849,24.7924968 C37.9789931,24.6984107 37.8833976,24.6309907 37.7732112,24.6093559 Z" id="Fill-37"></path>
            <polygon id="Fill-39" points="0 15.0940294 3.01880589 15.0940294 3.01880589 9.05641766 8.05014904 9.05641766 8.05014904 6.54074609 3.01880589 6.54074609 3.01880589 3.01880589 9.05641766 3.01880589 9.05641766 0.503134315 0 0.503134315"></polygon>
            <path d="M13.9469838,4.31699305 C14.8078466,3.38166636 15.8895854,2.9263298 17.2540857,2.9263298 C18.5868885,2.9263298 19.6927777,3.39424471 20.5435778,4.31850245 C21.4089689,5.23923825 21.8482051,6.44122612 21.8482051,7.88974982 C21.8482051,9.33777037 21.4089689,10.5397583 20.5430747,11.4609972 C19.6877464,12.3716703 18.581354,12.8340507 17.2540857,12.8340507 C15.8951199,12.8340507 14.812878,12.3847518 13.9469838,11.4625066 C13.093668,10.5342238 12.6604694,9.33273903 12.6604694,7.88974982 C12.6604694,6.4467606 13.093668,5.24527586 13.9469838,4.31699305 M17.2540857,0.264749276 C15.1031865,0.264749276 13.2974374,0.99982851 11.8886613,2.4483522 C10.4798853,3.87725366 9.76543454,5.70815943 9.76543454,7.88974982 C9.76543454,10.0844217 10.4798853,11.9213651 11.8896676,13.3522791 C13.3125315,14.7741366 15.1172742,15.4956313 17.2540857,15.4956313 C19.3783188,15.4956313 21.1765208,14.7741366 22.6003909,13.3502665 C24.0217453,11.9077805 24.74324,10.0708371 24.74324,7.88974982 C24.74324,5.72124092 24.0217453,3.89033515 22.6013972,2.44986161 C21.1906086,0.99982851 19.3919034,0.264749276 17.2540857,0.264749276" id="Fill-41"></path>
            <path d="M30.0355086,4.31699305 C30.8958682,3.38166636 31.9786133,2.9263298 33.3431135,2.9263298 C34.6754132,2.9263298 35.7813024,3.39424471 36.6321026,4.31850245 C37.4974936,5.23923825 37.9367298,6.44122612 37.9367298,7.88974982 C37.9367298,9.33777037 37.4974936,10.5397583 36.6315994,11.4609972 C35.7762711,12.3716703 34.6698787,12.8340507 33.3431135,12.8340507 C31.9836446,12.8340507 30.9019058,12.3847518 30.0355086,11.4625066 C29.1816896,10.5342238 28.7489941,9.33273903 28.7489941,7.88974982 C28.7489941,6.4467606 29.1816896,5.24527586 30.0355086,4.31699305 M33.3431135,0.264749276 C31.1917112,0.264749276 29.3864653,0.99982851 27.9771861,2.4483522 C26.56841,3.87725366 25.8539593,5.70815943 25.8539593,7.88974982 C25.8539593,10.0844217 26.56841,11.9213651 27.9786955,13.3522791 C29.4010562,14.7741366 31.205799,15.4956313 33.3431135,15.4956313 C35.4668435,15.4956313 37.2650455,14.7741366 38.6889156,13.3502665 C40.1102701,11.9077805 40.8317647,10.0708371 40.8317647,7.88974982 C40.8317647,5.72224719 40.1102701,3.89033515 38.6894188,2.44986161 C37.2796364,0.99982851 35.4804281,0.264749276 33.3431135,0.264749276" id="Fill-43"></path>
            <path d="M45.2820883,3.01880589 L47.0963907,3.01880589 C50.4095301,3.01880589 52.2354046,4.7666945 52.2354046,7.77895964 C52.2354046,10.8163815 50.4095301,12.5783579 47.0963907,12.5783579 L45.2820883,12.5783579 L45.2820883,3.01880589 Z M47.1547542,0.503134315 L42.7664167,0.503134315 L42.7664167,15.0940294 L47.1547542,15.0940294 C49.6638851,15.0940294 51.6311402,14.5139156 53.0001687,13.2233761 C54.4003915,11.923277 55.1108172,10.1346345 55.1108172,7.83329815 C55.1108172,5.52441478 54.4003915,3.71564691 53.0001687,2.43567322 C51.611518,1.14563683 49.644766,0.503134315 47.1547542,0.503134315 Z" id="Fill-45"></path>
            <polygon id="Fill-47" points="59.8729834 9.05641766 65.4074609 9.05641766 65.4074609 6.54074609 59.8729834 6.54074609 59.8729834 3.01880589 66.4137295 3.01880589 66.4137295 0.503134315 56.8541776 0.503134315 56.8541776 15.0940294 66.4137295 15.0940294 66.4137295 12.5783579 59.8729834 12.5783579"></polygon>
            <path d="M70.9419384,3.01880589 L73.3016383,3.01880589 C74.9232402,3.01880589 75.8912706,3.9148881 75.8912706,5.29297299 C75.8912706,6.6992334 74.971038,7.54701472 73.3016383,7.54701472 L70.9419384,7.54701472 L70.9419384,3.01880589 Z M76.1181842,9.39049885 C77.8172688,8.59755917 78.7863055,7.11582861 78.7863055,5.22605613 C78.7863055,3.75237572 78.2761273,2.58912918 77.2708649,1.74738547 C76.274659,0.91419505 75.0112887,0.503134315 73.5154704,0.503134315 L67.9231325,0.503134315 L67.9231325,15.0940294 L70.9419384,15.0940294 L70.9419384,10.0626863 L73.1039065,10.0626863 L76.2947843,15.0940294 L79.6320743,15.0940294 L76.1181842,9.39049885 Z" id="Fill-49"></path>
        </g>
    </g>
</svg>